<svg version="1.1" viewBox="0.0 0.0 960.0 720.0" fill="none" stroke="none" stroke-linecap="square" stroke-miterlimit="10" xmlns:xlink="http://www.w3.org/1999/xlink" xmlns="http://www.w3.org/2000/svg"><clipPath id="p.0"><path d="m0 0l960.0 0l0 720.0l-960.0 0l0 -720.0z" clip-rule="nonzero"/></clipPath><g clip-path="url(#p.0)"><path fill="#000000" fill-opacity="0.0" d="m0 0l960.0 0l0 720.0l-960.0 0z" fill-rule="evenodd"/><path fill="#000000" fill-opacity="0.0" d="m18.67979 118.1601l0 0c0 -56.04603 45.434284 -101.480316 101.480316 -101.480316l0 0c26.914253 0 52.726173 10.691645 71.75742 29.722897c19.03125 19.03125 29.7229 44.843163 29.7229 71.757416l0 0c0 56.04603 -45.434296 101.48032 -101.48032 101.48032l0 0c-56.04603 0 -101.480316 -45.434296 -101.480316 -101.48032z" fill-rule="evenodd"/><path stroke="#000000" stroke-width="8.0" stroke-linejoin="round" stroke-linecap="butt" d="m18.67979 118.1601l0 0c0 -56.04603 45.434284 -101.480316 101.480316 -101.480316l0 0c26.914253 0 52.726173 10.691645 71.75742 29.722897c19.03125 19.03125 29.7229 44.843163 29.7229 71.757416l0 0c0 56.04603 -45.434296 101.48032 -101.48032 101.48032l0 0c-56.04603 0 -101.480316 -45.434296 -101.480316 -101.48032z" fill-rule="evenodd"/><path fill="#000000" fill-opacity="0.0" d="m191.91753 189.91753l28.0 28.0" fill-rule="evenodd"/><path stroke="#000000" stroke-width="8.0" stroke-linejoin="round" stroke-linecap="butt" d="m191.91753 189.91753l28.0 28.0" fill-rule="evenodd"/><defs><linearGradient id="p.1" gradientUnits="userSpaceOnUse" gradientTransform="matrix(13.388231605818174 0.0 0.0 13.388231605818174 0.0 0.0)" spreadMethod="pad" x1="2.280803476956604" y1="2.131369922132438" x2="2.280755040499155" y2="15.519601527862994"><stop offset="0.0" stop-color="#f5d0d0"/><stop offset="1.0" stop-color="#d96868"/></linearGradient></defs><path fill="url(#p.1)" d="m30.535923 118.157974l0 0c0 -49.496895 40.125156 -89.622055 89.622055 -89.622055l0 0c23.769241 0 46.564957 9.442295 63.37236 26.249691c16.807388 16.807396 26.24968 39.60311 26.24968 63.37236l0 0c0 49.496887 -40.125153 89.62204 -89.62204 89.62204l0 0c-49.496895 0 -89.622055 -40.125153 -89.622055 -89.62204z" fill-rule="evenodd"/><path stroke="#000000" stroke-width="2.0" stroke-linejoin="round" stroke-linecap="butt" d="m30.535923 118.157974l0 0c0 -49.496895 40.125156 -89.622055 89.622055 -89.622055l0 0c23.769241 0 46.564957 9.442295 63.37236 26.249691c16.807388 16.807396 26.24968 39.60311 26.24968 63.37236l0 0c0 49.496887 -40.125153 89.62204 -89.62204 89.62204l0 0c-49.496895 0 -89.622055 -40.125153 -89.622055 -89.62204z" fill-rule="evenodd"/></g></svg>