<svg version="1.1" viewBox="0.0 0.0 960.0 720.0" fill="none" stroke="none" stroke-linecap="square" stroke-miterlimit="10" xmlns:xlink="http://www.w3.org/1999/xlink" xmlns="http://www.w3.org/2000/svg"><clipPath id="p.0"><path d="m0 0l960.0 0l0 720.0l-960.0 0l0 -720.0z" clip-rule="nonzero"/></clipPath><g clip-path="url(#p.0)"><path fill="#000000" fill-opacity="0.0" d="m0 0l960.0 0l0 720.0l-960.0 0z" fill-rule="evenodd"/><path fill="#000000" fill-opacity="0.0" d="m18.078741 134.00787l0 0c0 -64.61297 52.379158 -116.99213 116.99212 -116.99213l0 0c31.028244 0 60.785645 12.32592 82.72594 34.266197c21.940277 21.94028 34.26619 51.69768 34.26619 82.72592l0 0c0 64.61296 -52.37915 116.99213 -116.99213 116.99213l0 0c-64.61296 0 -116.99212 -52.379166 -116.99212 -116.99213z" fill-rule="evenodd"/><path stroke="#000000" stroke-width="8.0" stroke-linejoin="round" stroke-linecap="butt" d="m18.078741 134.00787l0 0c0 -64.61297 52.379158 -116.99213 116.99212 -116.99213l0 0c31.028244 0 60.785645 12.32592 82.72594 34.266197c21.940277 21.94028 34.26619 51.69768 34.26619 82.72592l0 0c0 64.61296 -52.37915 116.99213 -116.99213 116.99213l0 0c-64.61296 0 -116.99212 -52.379166 -116.99212 -116.99213z" fill-rule="evenodd"/><path fill="#000000" fill-opacity="0.0" d="m217.7968 216.7338l32.283463 32.283463" fill-rule="evenodd"/><path stroke="#000000" stroke-width="8.0" stroke-linejoin="round" stroke-linecap="butt" d="m217.7968 216.7338l32.283463 32.283463" fill-rule="evenodd"/><defs><linearGradient id="p.1" gradientUnits="userSpaceOnUse" gradientTransform="matrix(14.375201484998216 0.0 0.0 14.375201484998216 0.0 0.0)" spreadMethod="pad" x1="2.2085277572766437" y1="2.134529450630618" x2="2.2084756925037197" y2="16.509730935534552"><stop offset="0.0" stop-color="#f5d0d0"/><stop offset="1.0" stop-color="#d96868"/></linearGradient></defs><path fill="url(#p.1)" d="m31.748032 134.00787l0 0c0 -57.06363 46.25921 -103.32283 103.32283 -103.32283l0 0c27.402924 0 53.683487 10.885769 73.06029 30.262558c19.376785 19.37679 30.262558 45.65736 30.262558 73.06027l0 0c0 57.06363 -46.259216 103.32283 -103.322845 103.32283l0 0c-57.06362 0 -103.32283 -46.2592 -103.32283 -103.32283z" fill-rule="evenodd"/><path stroke="#000000" stroke-width="2.0" stroke-linejoin="round" stroke-linecap="butt" d="m31.748032 134.00787l0 0c0 -57.06363 46.25921 -103.32283 103.32283 -103.32283l0 0c27.402924 0 53.683487 10.885769 73.06029 30.262558c19.376785 19.37679 30.262558 45.65736 30.262558 73.06027l0 0c0 57.06363 -46.259216 103.32283 -103.322845 103.32283l0 0c-57.06362 0 -103.32283 -46.2592 -103.32283 -103.32283z" fill-rule="evenodd"/><path fill="#000000" fill-opacity="0.0" d="m50.850395 97.64567l168.44095 0l0 72.7244l-168.44095 0z" fill-rule="evenodd"/><path fill="#000000" d="m82.350395 148.88567l0 4.21875l-6.84375 0q-2.46875 0 -3.484375 -0.390625q-1.0 -0.375 -1.359375 -1.125q-0.34375 -0.75 -0.34375 -2.703125q-3.078125 -0.09375 -5.296875 -1.609375q-2.203125 -1.53125 -2.921875 -3.875q-0.703125 -2.359375 -0.703125 -7.046875l0 -10.765625q0 -3.53125 0.421875 -5.390625q0.421875 -1.859375 1.71875 -3.5q1.3125 -1.65625 3.375 -2.484375q2.0625 -0.84375 4.578125 -0.84375q3.03125 0 5.40625 1.03125q2.375 1.03125 3.546875 2.625q1.171875 1.59375 1.515625 3.296875q0.359375 1.703125 0.359375 5.078125l0 11.296875q0 4.640625 -0.453125 6.296875q-0.4375 1.65625 -1.71875 2.640625q-1.28125 0.96875 -3.40625 1.484375q0.0625 1.15625 0.484375 1.46875q0.421875 0.296875 1.984375 0.296875l3.140625 0zm-9.078125 -25.84375q0 -2.4375 -0.265625 -3.109375q-0.265625 -0.671875 -1.109375 -0.671875q-0.703125 0 -1.078125 0.546875q-0.375 0.546875 -0.375 3.234375l0 16.234375q0 3.03125 0.25 3.75q0.25 0.703125 1.140625 0.703125q0.921875 0 1.171875 -0.8125q0.265625 -0.828125 0.265625 -3.890625l0 -15.984375zm33.541016 6.234375l-9.046875 0l0 -6.0625q0 -2.640625 -0.296875 -3.296875q-0.28125 -0.65625 -1.265625 -0.65625q-1.125 0 -1.421875 0.796875q-0.296875 0.796875 -0.296875 3.4375l0 16.15625q0 2.53125 0.296875 3.3125q0.296875 0.765625 1.359375 0.765625q1.0 0 1.3125 -0.765625q0.3125 -0.78125 0.3125 -3.640625l0 -4.359375l9.046875 0l0 1.359375q0 5.390625 -0.765625 7.640625q-0.75 2.25 -3.375 3.953125q-2.609375 1.703125 -6.421875 1.703125q-3.984375 0 -6.5625 -1.4375q-2.578125 -1.453125 -3.421875 -3.984375q-0.828125 -2.546875 -0.828125 -7.671875l0 -10.15625q0 -3.765625 0.25 -5.640625q0.265625 -1.875 1.546875 -3.609375q1.28125 -1.75 3.546875 -2.75q2.265625 -1.0 5.203125 -1.0q4.0 0 6.59375 1.546875q2.609375 1.546875 3.421875 3.859375q0.8125 2.3125 0.8125 7.1875l0 3.3125zm3.2539062 -15.171875l15.3125 0l0 6.953125l-6.28125 0l0 6.59375l5.59375 0l0 6.625l-5.59375 0l0 14.609375l-9.03125 0l0 -34.78125zm26.541008 0l0 34.78125l-9.031242 0l0 -34.78125l9.031242 0zm3.6445312 0l6.390625 0q6.40625 0 8.671875 0.5q2.265625 0.484375 3.6875 2.515625q1.4375 2.03125 1.4375 6.484375q0 4.046875 -1.015625 5.453125q-1.0 1.390625 -3.96875 1.671875q2.6875 0.671875 3.609375 1.796875q0.921875 1.109375 1.140625 2.046875q0.234375 0.921875 0.234375 5.140625l0 9.171875l-8.40625 0l0 -11.5625q0 -2.796875 -0.4375 -3.453125q-0.4375 -0.671875 -2.3125 -0.671875l0 15.6875l-9.03125 0l0 -34.78125zm9.03125 5.953125l0 7.734375q1.53125 0 2.140625 -0.421875q0.609375 -0.421875 0.609375 -2.71875l0 -1.90625q0 -1.65625 -0.59375 -2.171875q-0.578125 -0.515625 -2.15625 -0.515625zm33.822266 4.578125l-8.40625 0l0 -2.578125q0 -1.8125 -0.328125 -2.296875q-0.3125 -0.5 -1.0625 -0.5q-0.8125 0 -1.234375 0.671875q-0.421875 0.65625 -0.421875 2.015625q0 1.734375 0.46875 2.609375q0.453125 0.890625 2.5625 2.140625q6.03125 3.578125 7.609375 5.875q1.5625 2.296875 1.5625 7.421875q0 3.71875 -0.875 5.484375q-0.859375 1.75 -3.359375 2.953125q-2.484375 1.1875 -5.796875 1.1875q-3.625 0 -6.203125 -1.375q-2.5625 -1.375 -3.359375 -3.5q-0.796875 -2.140625 -0.796875 -6.046875l0 -2.28125l8.40625 0l0 4.234375q0 1.953125 0.34375 2.515625q0.359375 0.5625 1.265625 0.5625q0.90625 0 1.34375 -0.703125q0.4375 -0.71875 0.4375 -2.109375q0 -3.078125 -0.828125 -4.015625q-0.859375 -0.953125 -4.234375 -3.15625q-3.375 -2.234375 -4.46875 -3.25q-1.09375 -1.015625 -1.828125 -2.796875q-0.71875 -1.78125 -0.71875 -4.546875q0 -4.0 1.015625 -5.84375q1.03125 -1.859375 3.3125 -2.890625q2.28125 -1.046875 5.5 -1.046875q3.515625 0 6.0 1.140625q2.484375 1.140625 3.28125 2.875q0.8125 1.71875 0.8125 5.875l0 1.375zm21.814453 -10.53125l0 6.953125l-5.375 0l0 27.828125l-9.046875 0l0 -27.828125l-5.34375 0l0 -6.953125l19.765625 0z" fill-rule="nonzero"/></g></svg>