<svg version="1.1" viewBox="0.0 0.0 357.5459317585302 332.91076115485566" fill="none" stroke="none" stroke-linecap="square" stroke-miterlimit="10" xmlns:xlink="http://www.w3.org/1999/xlink" xmlns="http://www.w3.org/2000/svg"><clipPath id="p.0"><path d="m0 0l357.54593 0l0 332.91077l-357.54593 0l0 -332.91077z" clip-rule="nonzero"/></clipPath><g clip-path="url(#p.0)"><path fill="#000000" fill-opacity="0.0" d="m0 0l357.54593 0l0 332.91077l-357.54593 0z" fill-rule="evenodd"/><path fill="#000000" fill-opacity="0.0" d="m4.3700786 4.0577426l327.82556 0c5.609558 0 10.989349 2.228382 14.955872 6.1949267c3.9665527 3.966545 6.1949463 9.346335 6.1949463 14.955876l0 304.04605l-348.97638 0z" fill-rule="evenodd"/><path stroke="#000000" stroke-width="4.0" stroke-linejoin="round" stroke-linecap="butt" d="m4.3700786 4.0577426l327.82556 0c5.609558 0 10.989349 2.228382 14.955872 6.1949267c3.9665527 3.966545 6.1949463 9.346335 6.1949463 14.955876l0 304.04605l-348.97638 0z" fill-rule="evenodd"/><path fill="#000000" d="m35.204723 41.805946l0 0c0 -4.786564 3.8802757 -8.66684 8.66684 -8.66684l269.97342 0c2.298584 0 4.5030212 0.91311264 6.1283875 2.5384598c1.6253357 1.6253471 2.5384521 3.829792 2.5384521 6.12838l0 34.66632c0 4.7865677 -3.8802795 8.66684 -8.66684 8.66684l-269.97342 0c-4.786564 0 -8.66684 -3.880272 -8.66684 -8.66684z" fill-rule="evenodd"/><path stroke="#000000" stroke-width="1.0" stroke-linejoin="round" stroke-linecap="butt" d="m35.204723 41.805946l0 0c0 -4.786564 3.8802757 -8.66684 8.66684 -8.66684l269.97342 0c2.298584 0 4.5030212 0.91311264 6.1283875 2.5384598c1.6253357 1.6253471 2.5384521 3.829792 2.5384521 6.12838l0 34.66632c0 4.7865677 -3.8802795 8.66684 -8.66684 8.66684l-269.97342 0c-4.786564 0 -8.66684 -3.880272 -8.66684 -8.66684z" fill-rule="evenodd"/><path fill="#000000" d="m88.08137 109.336l0 0c0 -1.1219864 0.9095459 -2.03154 2.0315323 -2.03154l230.36214 0c0.53878784 0 1.0555115 0.21404266 1.4364929 0.5950241c0.38098145 0.38098907 0.59503174 0.89772034 0.59503174 1.4365158l0 8.1259c0 1.1219864 -0.9095459 2.03154 -2.0315247 2.03154l-230.36214 0c-1.1219864 0 -2.0315323 -0.9095535 -2.0315323 -2.03154z" fill-rule="evenodd"/><path stroke="#000000" stroke-width="1.0" stroke-linejoin="round" stroke-linecap="butt" d="m88.08137 109.336l0 0c0 -1.1219864 0.9095459 -2.03154 2.0315323 -2.03154l230.36214 0c0.53878784 0 1.0555115 0.21404266 1.4364929 0.5950241c0.38098145 0.38098907 0.59503174 0.89772034 0.59503174 1.4365158l0 8.1259c0 1.1219864 -0.9095459 2.03154 -2.0315247 2.03154l-230.36214 0c-1.1219864 0 -2.0315323 -0.9095535 -2.0315323 -2.03154z" fill-rule="evenodd"/><path fill="#000000" d="m88.08137 132.38586l0 0c0 -1.1219788 0.9095459 -2.03154 2.0315323 -2.03154l230.36214 0c0.53878784 0 1.0555115 0.21403503 1.4364929 0.59503174c0.38098145 0.38098145 0.59503174 0.89772034 0.59503174 1.4365082l0 8.1259c0 1.121994 -0.9095459 2.03154 -2.0315247 2.03154l-230.36214 0c-1.1219864 0 -2.0315323 -0.9095459 -2.0315323 -2.03154z" fill-rule="evenodd"/><path stroke="#000000" stroke-width="1.0" stroke-linejoin="round" stroke-linecap="butt" d="m88.08137 132.38586l0 0c0 -1.1219788 0.9095459 -2.03154 2.0315323 -2.03154l230.36214 0c0.53878784 0 1.0555115 0.21403503 1.4364929 0.59503174c0.38098145 0.38098145 0.59503174 0.89772034 0.59503174 1.4365082l0 8.1259c0 1.121994 -0.9095459 2.03154 -2.0315247 2.03154l-230.36214 0c-1.1219864 0 -2.0315323 -0.9095459 -2.0315323 -2.03154z" fill-rule="evenodd"/><path fill="#000000" d="m88.08137 180.85568l0 0c0 -1.1219788 0.9095459 -2.03154 2.0315323 -2.03154l230.36214 0c0.53878784 0 1.0555115 0.21403503 1.4364929 0.59503174c0.38098145 0.38098145 0.59503174 0.8977051 0.59503174 1.4365082l0 8.1259c0 1.121994 -0.9095459 2.03154 -2.0315247 2.03154l-230.36214 0c-1.1219864 0 -2.0315323 -0.9095459 -2.0315323 -2.03154z" fill-rule="evenodd"/><path stroke="#000000" stroke-width="1.0" stroke-linejoin="round" stroke-linecap="butt" d="m88.08137 180.85568l0 0c0 -1.1219788 0.9095459 -2.03154 2.0315323 -2.03154l230.36214 0c0.53878784 0 1.0555115 0.21403503 1.4364929 0.59503174c0.38098145 0.38098145 0.59503174 0.8977051 0.59503174 1.4365082l0 8.1259c0 1.121994 -0.9095459 2.03154 -2.0315247 2.03154l-230.36214 0c-1.1219864 0 -2.0315323 -0.9095459 -2.0315323 -2.03154z" fill-rule="evenodd"/><path fill="#000000" d="m88.08137 203.90555l0 0c0 -1.1219788 0.9095459 -2.03154 2.0315323 -2.03154l230.36214 0c0.53878784 0 1.0555115 0.2140503 1.4364929 0.59503174c0.38098145 0.38098145 0.59503174 0.89772034 0.59503174 1.4365082l0 8.1259c0 1.121994 -0.9095459 2.03154 -2.0315247 2.03154l-230.36214 0c-1.1219864 0 -2.0315323 -0.9095459 -2.0315323 -2.03154z" fill-rule="evenodd"/><path stroke="#000000" stroke-width="1.0" stroke-linejoin="round" stroke-linecap="butt" d="m88.08137 203.90555l0 0c0 -1.1219788 0.9095459 -2.03154 2.0315323 -2.03154l230.36214 0c0.53878784 0 1.0555115 0.2140503 1.4364929 0.59503174c0.38098145 0.38098145 0.59503174 0.89772034 0.59503174 1.4365082l0 8.1259c0 1.121994 -0.9095459 2.03154 -2.0315247 2.03154l-230.36214 0c-1.1219864 0 -2.0315323 -0.9095459 -2.0315323 -2.03154z" fill-rule="evenodd"/><path fill="#000000" d="m35.204723 121.8399l0 0c0 -8.027702 6.507736 -14.535439 14.535435 -14.535439l0 0c3.8550377 0 7.5521812 1.5314102 10.278103 4.257332c2.7259216 2.7259216 4.257328 6.423065 4.257328 10.278107l0 0c0 8.027702 -6.5077324 14.535439 -14.535431 14.535439l0 0c-8.0276985 0 -14.535435 -6.507736 -14.535435 -14.535439z" fill-rule="evenodd"/><path stroke="#000000" stroke-width="1.0" stroke-linejoin="round" stroke-linecap="butt" d="m35.204723 121.8399l0 0c0 -8.027702 6.507736 -14.535439 14.535435 -14.535439l0 0c3.8550377 0 7.5521812 1.5314102 10.278103 4.257332c2.7259216 2.7259216 4.257328 6.423065 4.257328 10.278107l0 0c0 8.027702 -6.5077324 14.535439 -14.535431 14.535439l0 0c-8.0276985 0 -14.535435 -6.507736 -14.535435 -14.535439z" fill-rule="evenodd"/><path fill="#000000" d="m35.204723 193.35957l0 0c0 -8.027695 6.507736 -14.535431 14.535435 -14.535431l0 0c3.8550377 0 7.5521812 1.5314178 10.278103 4.2573395c2.7259216 2.7259216 4.257328 6.423065 4.257328 10.278091l0 0c0 8.02771 -6.5077324 14.535446 -14.535431 14.535446l0 0c-8.0276985 0 -14.535435 -6.507736 -14.535435 -14.535446z" fill-rule="evenodd"/><path stroke="#000000" stroke-width="1.0" stroke-linejoin="round" stroke-linecap="butt" d="m35.204723 193.35957l0 0c0 -8.027695 6.507736 -14.535431 14.535435 -14.535431l0 0c3.8550377 0 7.5521812 1.5314178 10.278103 4.2573395c2.7259216 2.7259216 4.257328 6.423065 4.257328 10.278091l0 0c0 8.02771 -6.5077324 14.535446 -14.535431 14.535446l0 0c-8.0276985 0 -14.535435 -6.507736 -14.535435 -14.535446z" fill-rule="evenodd"/><path fill="#000000" d="m88.08399 252.37537l0 0c0 -1.1219788 0.9095459 -2.03154 2.0315323 -2.03154l230.36214 0c0.53878784 0 1.0555115 0.21403503 1.4364929 0.59503174c0.38098145 0.38098145 0.59503174 0.89772034 0.59503174 1.4365082l0 8.125916c0 1.1219788 -0.9095459 2.0315247 -2.0315247 2.0315247l-230.36214 0c-1.1219864 0 -2.0315323 -0.9095459 -2.0315323 -2.0315247z" fill-rule="evenodd"/><path stroke="#000000" stroke-width="1.0" stroke-linejoin="round" stroke-linecap="butt" d="m88.08399 252.37537l0 0c0 -1.1219788 0.9095459 -2.03154 2.0315323 -2.03154l230.36214 0c0.53878784 0 1.0555115 0.21403503 1.4364929 0.59503174c0.38098145 0.38098145 0.59503174 0.89772034 0.59503174 1.4365082l0 8.125916c0 1.1219788 -0.9095459 2.0315247 -2.0315247 2.0315247l-230.36214 0c-1.1219864 0 -2.0315323 -0.9095459 -2.0315323 -2.0315247z" fill-rule="evenodd"/><path fill="#000000" d="m88.08399 275.42523l0 0c0 -1.1219788 0.9095459 -2.0315247 2.0315323 -2.0315247l230.36214 0c0.53878784 0 1.0555115 0.21401978 1.4364929 0.59503174c0.38098145 0.38098145 0.59503174 0.8977051 0.59503174 1.4364929l0 8.125916c0 1.1219788 -0.9095459 2.0315247 -2.0315247 2.0315247l-230.36214 0c-1.1219864 0 -2.0315323 -0.9095459 -2.0315323 -2.0315247z" fill-rule="evenodd"/><path stroke="#000000" stroke-width="1.0" stroke-linejoin="round" stroke-linecap="butt" d="m88.08399 275.42523l0 0c0 -1.1219788 0.9095459 -2.0315247 2.0315323 -2.0315247l230.36214 0c0.53878784 0 1.0555115 0.21401978 1.4364929 0.59503174c0.38098145 0.38098145 0.59503174 0.8977051 0.59503174 1.4364929l0 8.125916c0 1.1219788 -0.9095459 2.0315247 -2.0315247 2.0315247l-230.36214 0c-1.1219864 0 -2.0315323 -0.9095459 -2.0315323 -2.0315247z" fill-rule="evenodd"/><path fill="#000000" d="m35.207348 264.87927l0 0c0 -8.02771 6.507736 -14.535446 14.535435 -14.535446l0 0c3.8550377 0 7.5521812 1.5314178 10.278103 4.2573395c2.7259216 2.7259216 4.257328 6.423065 4.257328 10.278107l0 0c0 8.027679 -6.5077324 14.535431 -14.535431 14.535431l0 0c-8.0276985 0 -14.535435 -6.5077515 -14.535435 -14.535431z" fill-rule="evenodd"/><path stroke="#000000" stroke-width="1.0" stroke-linejoin="round" stroke-linecap="butt" d="m35.207348 264.87927l0 0c0 -8.02771 6.507736 -14.535446 14.535435 -14.535446l0 0c3.8550377 0 7.5521812 1.5314178 10.278103 4.2573395c2.7259216 2.7259216 4.257328 6.423065 4.257328 10.278107l0 0c0 8.027679 -6.5077324 14.535431 -14.535431 14.535431l0 0c-8.0276985 0 -14.535435 -6.5077515 -14.535435 -14.535431z" fill-rule="evenodd"/></g></svg>