<svg version="1.1" viewBox="0.0 0.0 222.46194225721786 185.13648293963254" fill="none" stroke="none" stroke-linecap="square" stroke-miterlimit="10" xmlns:xlink="http://www.w3.org/1999/xlink" xmlns="http://www.w3.org/2000/svg"><clipPath id="p.0"><path d="m0 0l222.46194 0l0 185.13649l-222.46194 0l0 -185.13649z" clip-rule="nonzero"/></clipPath><g clip-path="url(#p.0)"><path fill="#000000" fill-opacity="0.0" d="m0 0l222.46194 0l0 185.13649l-222.46194 0z" fill-rule="evenodd"/><path fill="#000000" d="m34.50656 92.568245l0 0c0 -42.373726 34.350685 -76.72441 76.72441 -76.72441l0 0c20.348572 0 39.863724 8.083441 54.25235 22.47206c14.388611 14.388618 22.472061 33.903774 22.472061 54.252354l0 0c0 42.37371 -34.350693 76.7244 -76.72441 76.7244l0 0c-42.373726 0 -76.72441 -34.350693 -76.72441 -76.7244z" fill-rule="evenodd"/><path stroke="#000000" stroke-width="1.0" stroke-linejoin="round" stroke-linecap="butt" d="m34.50656 92.568245l0 0c0 -42.373726 34.350685 -76.72441 76.72441 -76.72441l0 0c20.348572 0 39.863724 8.083441 54.25235 22.47206c14.388611 14.388618 22.472061 33.903774 22.472061 54.252354l0 0c0 42.37371 -34.350693 76.7244 -76.72441 76.7244l0 0c-42.373726 0 -76.72441 -34.350693 -76.72441 -76.7244z" fill-rule="evenodd"/><path fill="#000000" fill-opacity="0.0" d="m-74.926506 5.3083987l372.31497 0l0 174.51968l-372.31497 0z" fill-rule="evenodd"/><path fill="#ffffff" d="m113.91848 62.063404q-4.0 0 -6.9375 -2.6875q-2.9375 -2.6875 -2.9375 -6.5625q0 -3.875 2.9375 -6.5625q2.9375 -2.6875 6.9375 -2.6875q4.0 0 6.90625 2.6875q2.90625 2.6875 2.90625 6.5625q0 3.875 -2.90625 6.5625q-2.90625 2.6875 -6.90625 2.6875zm5.3125 45.812496q0 3.5625 0.21875 11.4375q0.21875 7.875 0.21875 11.4375q0 3.625 -2.4375 5.96875q-2.4375 2.34375 -6.1875 2.34375q-3.75 0 -6.1875 -2.34375q-2.4375 -2.34375 -2.4375 -5.96875q0 -3.5625 -0.21875 -11.4375q-0.21875 -7.875 -0.21875 -11.4375q0 -5.5625 0.625 -13.9375q0.625 -8.375 0.625 -13.9375q0 -3.625 2.4375 -5.96875q2.4375 -2.34375 6.1875 -2.34375q3.75 0 6.1875 2.34375q2.4375 2.34375 2.4375 5.96875q0 5.5625 -0.625 13.9375q-0.625 8.375 -0.625 13.9375z" fill-rule="nonzero"/></g></svg>