<svg version="1.1" viewBox="0.0 0.0 439.38582677165357 469.9238845144357" fill="none" stroke="none" stroke-linecap="square" stroke-miterlimit="10" xmlns:xlink="http://www.w3.org/1999/xlink" xmlns="http://www.w3.org/2000/svg"><clipPath id="p.0"><path d="m0 0l439.38583 0l0 469.9239l-439.38583 0l0 -469.9239z" clip-rule="nonzero"/></clipPath><g clip-path="url(#p.0)"><path fill="#000000" fill-opacity="0.0" d="m0 0l439.38583 0l0 469.9239l-439.38583 0z" fill-rule="evenodd"/><path fill="#000000" d="m95.88189 149.88058l0 0c0 -68.378944 55.43209 -123.811035 123.81103 -123.811035l0 0c32.836716 0 64.32854 13.044338 87.54762 36.26341c23.219055 23.21907 36.263397 54.71089 36.263397 87.54762l0 0c0 68.37894 -55.4321 123.811005 -123.81102 123.811005l0 0c-68.37894 0 -123.81103 -55.432068 -123.81103 -123.811005z" fill-rule="evenodd"/><path stroke="#000000" stroke-width="1.0" stroke-linejoin="round" stroke-linecap="butt" d="m95.88189 149.88058l0 0c0 -68.378944 55.43209 -123.811035 123.81103 -123.811035l0 0c32.836716 0 64.32854 13.044338 87.54762 36.26341c23.219055 23.21907 36.263397 54.71089 36.263397 87.54762l0 0c0 68.37894 -55.4321 123.811005 -123.81102 123.811005l0 0c-68.37894 0 -123.81103 -55.432068 -123.81103 -123.811005z" fill-rule="evenodd"/><path fill="#000000" d="m117.04724 286.94095l205.29135 0l0 0c20.808014 0 40.763763 8.265961 55.477264 22.979431c14.71347 14.71347 22.979431 34.66925 22.979431 55.477264l0 78.456696c0 0.0016479492 -0.001373291 0.0030212402 -0.0030212402 0.0030212402l-362.20172 -0.0030212402l0 0c-0.0016670227 0 -0.0030174255 -0.001373291 -0.0030174255 -0.0030212402l0.0030174255 -78.453674l0 0c0 -43.330444 35.126263 -78.456696 78.456696 -78.456696z" fill-rule="evenodd"/><path stroke="#000000" stroke-width="1.0" stroke-linejoin="round" stroke-linecap="butt" d="m117.04724 286.94095l205.29135 0l0 0c20.808014 0 40.763763 8.265961 55.477264 22.979431c14.71347 14.71347 22.979431 34.66925 22.979431 55.477264l0 78.456696c0 0.0016479492 -0.001373291 0.0030212402 -0.0030212402 0.0030212402l-362.20172 -0.0030212402l0 0c-0.0016670227 0 -0.0030174255 -0.001373291 -0.0030174255 -0.0030212402l0.0030174255 -78.453674l0 0c0 -43.330444 35.126263 -78.456696 78.456696 -78.456696z" fill-rule="evenodd"/></g></svg>